# Blender v2.91.0 OBJ File: ''
# www.blender.org
mtllib ore2.mtl
o Icosphere
v 0.723600 -0.447215 0.525720
v -0.276385 -0.447215 0.850640
v -0.894425 -0.447215 0.000000
v -0.276385 -0.447215 -0.850640
v 0.723600 -0.447215 -0.525720
v 0.276385 0.447215 0.850640
v -0.723600 0.447215 0.525720
v -0.723600 0.447215 -0.525720
v 0.276385 0.447215 -0.850640
v 0.894425 0.447215 0.000000
v 0.000000 1.000000 0.000000
vt 0.727272 0.157461
vt 0.545454 0.157461
vt 0.636363 0.314921
vt 0.909090 0.157461
vt 0.818181 0.314921
vt 0.181818 0.157461
vt 0.000000 0.157461
vt 0.090909 0.314921
vt 0.363636 0.157461
vt 0.272727 0.314921
vt 0.454545 0.314921
vt 1.000000 0.314921
vt 0.727272 0.472382
vt 0.909090 0.472382
vt 0.181818 0.472382
vt 0.363636 0.472382
vt 0.545454 0.472382
vn 0.9822 -0.1876 0.0000
vn 0.3035 -0.1876 0.9342
vn -0.7946 -0.1876 0.5774
vn -0.7946 -0.1876 -0.5774
vn 0.3035 -0.1876 -0.9342
vn 0.7946 0.1876 0.5774
vn -0.3035 0.1876 0.9342
vn -0.9822 0.1876 0.0000
vn -0.3035 0.1876 -0.9342
vn 0.7946 0.1876 -0.5774
vn 0.4911 0.7947 0.3568
vn -0.1876 0.7947 0.5774
vn -0.6071 0.7947 0.0000
vn -0.1876 0.7947 -0.5774
vn 0.4911 0.7947 -0.3568
usemtl None
s off
f 1/1/1 5/2/1 10/3/1
f 2/4/2 1/1/2 6/5/2
f 3/6/3 2/7/3 7/8/3
f 4/9/4 3/6/4 8/10/4
f 5/2/5 4/9/5 9/11/5
f 1/1/6 10/3/6 6/5/6
f 2/4/7 6/5/7 7/12/7
f 3/6/8 7/8/8 8/10/8
f 4/9/9 8/10/9 9/11/9
f 5/2/10 9/11/10 10/3/10
f 6/5/11 10/3/11 11/13/11
f 7/12/12 6/5/12 11/14/12
f 8/10/13 7/8/13 11/15/13
f 9/11/14 8/10/14 11/16/14
f 10/3/15 9/11/15 11/17/15
o Icosphere.001
v 0.883403 -0.447215 -2.001084
v 0.406060 -0.447215 -1.064234
v -0.632454 -0.447215 -1.228708
v -0.796927 -0.447215 -2.267221
v 0.139922 -0.447215 -2.744564
v 0.796927 0.447215 -1.455102
v -0.139922 0.447215 -0.977759
v -0.883403 0.447215 -1.721239
v -0.406060 0.447215 -2.658088
v 0.632454 0.447215 -2.493615
v 0.000000 1.000000 -1.861161
vt 0.727272 0.157461
vt 0.545454 0.157461
vt 0.636363 0.314921
vt 0.909090 0.157461
vt 0.818181 0.314921
vt 0.181818 0.157461
vt 0.000000 0.157461
vt 0.090909 0.314921
vt 0.363636 0.157461
vt 0.272727 0.314921
vt 0.454545 0.314921
vt 1.000000 0.314921
vt 0.727272 0.472382
vt 0.909090 0.472382
vt 0.181818 0.472382
vt 0.363636 0.472382
vt 0.545454 0.472382
vn 0.6946 -0.1876 -0.6946
vn 0.8752 -0.1876 0.4459
vn -0.1536 -0.1876 0.9702
vn -0.9702 -0.1876 0.1536
vn -0.4459 -0.1876 -0.8752
vn 0.9702 0.1876 -0.1536
vn 0.4459 0.1876 0.8752
vn -0.6946 0.1876 0.6946
vn -0.8752 0.1876 -0.4459
vn 0.1536 0.1876 -0.9702
vn 0.5996 0.7947 -0.0950
vn 0.2756 0.7947 0.5409
vn -0.4293 0.7947 0.4293
vn -0.5409 0.7947 -0.2756
vn 0.0950 0.7947 -0.5996
usemtl None
s off
f 12/18/16 16/19/16 21/20/16
f 13/21/17 12/18/17 17/22/17
f 14/23/18 13/24/18 18/25/18
f 15/26/19 14/23/19 19/27/19
f 16/19/20 15/26/20 20/28/20
f 12/18/21 21/20/21 17/22/21
f 13/21/22 17/22/22 18/29/22
f 14/23/23 18/25/23 19/27/23
f 15/26/24 19/27/24 20/28/24
f 16/19/25 20/28/25 21/20/25
f 17/22/26 21/20/26 22/30/26
f 18/29/27 17/22/27 22/31/27
f 19/27/28 18/25/28 22/32/28
f 20/28/29 19/27/29 22/33/29
f 21/20/30 20/28/30 22/34/30
o Icosphere.003
v -0.852258 -0.447215 -1.150129
v -0.864410 -0.447215 -0.098751
v -1.868092 -0.447215 0.214594
v -2.476237 -0.447215 -0.643148
v -1.848413 -0.447215 -1.486582
v -0.687528 0.447215 -0.622456
v -1.315351 0.447215 0.220978
v -2.311507 0.447215 -0.115475
v -2.299355 0.447215 -1.166853
v -1.295673 0.447215 -1.480198
v -1.581882 1.000000 -0.632802
vt 0.727272 0.157461
vt 0.545454 0.157461
vt 0.636363 0.314921
vt 0.909090 0.157461
vt 0.818181 0.314921
vt 0.181818 0.157461
vt 0.000000 0.157461
vt 0.090909 0.314921
vt 0.363636 0.157461
vt 0.272727 0.314921
vt 0.454545 0.314921
vt 1.000000 0.314921
vt 0.727272 0.472382
vt 0.909090 0.472382
vt 0.181818 0.472382
vt 0.363636 0.472382
vt 0.545454 0.472382
vn 0.3143 -0.1876 -0.9306
vn 0.9822 -0.1876 0.0114
vn 0.2927 -0.1876 0.9376
vn -0.8013 -0.1876 0.5681
vn -0.7879 -0.1876 -0.5865
vn 0.8013 0.1876 -0.5681
vn 0.7879 0.1876 0.5865
vn -0.3143 0.1876 0.9306
vn -0.9822 0.1876 -0.0114
vn -0.2927 0.1876 -0.9376
vn 0.4952 0.7947 -0.3511
vn 0.4870 0.7947 0.3625
vn -0.1943 0.7947 0.5751
vn -0.6070 0.7947 -0.0070
vn -0.1809 0.7947 -0.5795
usemtl None
s off
f 23/35/31 27/36/31 32/37/31
f 24/38/32 23/35/32 28/39/32
f 25/40/33 24/41/33 29/42/33
f 26/43/34 25/40/34 30/44/34
f 27/36/35 26/43/35 31/45/35
f 23/35/36 32/37/36 28/39/36
f 24/38/37 28/39/37 29/46/37
f 25/40/38 29/42/38 30/44/38
f 26/43/39 30/44/39 31/45/39
f 27/36/40 31/45/40 32/37/40
f 28/39/41 32/37/41 33/47/41
f 29/46/42 28/39/42 33/48/42
f 30/44/43 29/42/43 33/49/43
f 31/45/44 30/44/44 33/50/44
f 32/37/45 31/45/45 33/51/45
o Icosphere.002
v 2.138872 -0.447215 -1.783065
v 2.873715 -0.447215 -1.031036
v 2.385573 -0.447215 -0.099757
v 1.349035 -0.447215 -0.276249
v 1.196575 -0.447215 -1.316585
v 2.628474 0.447215 -1.526426
v 2.780934 0.447215 -0.486090
v 1.838637 0.447215 -0.019610
v 1.103794 0.447215 -0.771639
v 1.591936 0.447215 -1.702918
v 1.988755 1.000000 -0.901338
vt 0.727272 0.157461
vt 0.545454 0.157461
vt 0.636363 0.314921
vt 0.909090 0.157461
vt 0.818181 0.314921
vt 0.181818 0.157461
vt 0.000000 0.157461
vt 0.090909 0.314921
vt 0.363636 0.157461
vt 0.272727 0.314921
vt 0.454545 0.314921
vt 1.000000 0.314921
vt 0.727272 0.472382
vt 0.909090 0.472382
vt 0.181818 0.472382
vt 0.363636 0.472382
vt 0.545454 0.472382
vn -0.4358 -0.1876 -0.8803
vn 0.7025 -0.1876 -0.6865
vn 0.8700 -0.1876 0.4560
vn -0.1649 -0.1876 0.9683
vn -0.9719 -0.1876 0.1424
vn 0.1649 0.1876 -0.9683
vn 0.9719 0.1876 -0.1424
vn 0.4358 0.1876 0.8803
vn -0.7025 0.1876 0.6865
vn -0.8700 0.1876 -0.4560
vn 0.1019 0.7947 -0.5985
vn 0.6007 0.7947 -0.0880
vn 0.2693 0.7947 0.5440
vn -0.4342 0.7947 0.4243
vn -0.5377 0.7947 -0.2818
usemtl None
s off
f 34/52/46 38/53/46 43/54/46
f 35/55/47 34/52/47 39/56/47
f 36/57/48 35/58/48 40/59/48
f 37/60/49 36/57/49 41/61/49
f 38/53/50 37/60/50 42/62/50
f 34/52/51 43/54/51 39/56/51
f 35/55/52 39/56/52 40/63/52
f 36/57/53 40/59/53 41/61/53
f 37/60/54 41/61/54 42/62/54
f 38/53/55 42/62/55 43/54/55
f 39/56/56 43/54/56 44/64/56
f 40/63/57 39/56/57 44/65/57
f 41/61/58 40/59/58 44/66/58
f 42/62/59 41/61/59 44/67/59
f 43/54/60 42/62/60 44/68/60
